<svg xmlns="http://www.w3.org/2000/svg" xmlns:xlink="http://www.w3.org/1999/xlink" width="3353.17" height="2800" viewBox="0 0 3353.17 2800"><defs><style>.cls-1{fill:none;}.cls-2{isolation:isolate;}.cls-3{fill:#f2f4f7;}.cls-4{fill:#ced2d8;}.cls-5{fill:#202a3f;}.cls-6{clip-path:url(#clip-path);}.cls-11,.cls-7{fill:#fff;}.cls-8{opacity:0.46;}.cls-9{fill:#afbfce;}.cls-10{fill:#55667f;}.cls-11{mix-blend-mode:soft-light;}.cls-12{fill:#9ca1ad;}.cls-13{fill:url(#linear-gradient);}.cls-14{fill:url(#linear-gradient-2);}.cls-15{fill:url(#linear-gradient-3);}.cls-16{fill:url(#linear-gradient-4);}.cls-17{fill:url(#linear-gradient-5);}</style><clipPath id="clip-path" transform="translate(487)"><path class="cls-1" d="M2712.67,2202a327.17,327.17,0,0,1-8.62,85.33c-23.12,97.19-89.76,168.78-169.71,171.17L333.8,2526c-106.57,3.24-192.5-117.08-186.44-260.94l14.16-335.17,14.17-335.77,10.75-253.85,24.74-584.93c5.64-133.54,88.92-236.78,187.9-232.69l559.84,23.13,1537.53,63.4c95.83,3.92,173.13,107.51,176.89,237l25.42,875.47Z"/></clipPath><linearGradient id="linear-gradient" x1="-4963.77" y1="2011.85" x2="-5131.69" y2="2211.54" gradientTransform="matrix(-1, 0, 0, 1, -3075.74, 0)" gradientUnits="userSpaceOnUse"><stop offset="0" stop-color="#febbba"/><stop offset="1" stop-color="#ff928e"/></linearGradient><linearGradient id="linear-gradient-2" x1="-5159.57" y1="2193.54" x2="-4823.93" y2="1734.37" xlink:href="#linear-gradient"/><linearGradient id="linear-gradient-3" x1="-5364.89" y1="1813.03" x2="-5352.53" y2="1701.76" xlink:href="#linear-gradient"/><linearGradient id="linear-gradient-4" x1="-5298.95" y1="1715.97" x2="-5353.44" y2="1536.24" xlink:href="#linear-gradient"/><linearGradient id="linear-gradient-5" x1="-5355.39" y1="1733.08" x2="-5409.89" y2="1553.35" xlink:href="#linear-gradient"/></defs><title>reduce-time</title><g class="cls-2"><g id="Layer_2" data-name="Layer 2"><g id="Illustration"><path class="cls-3" d="M2474.05,2408.85c-73.21,75.46-138.71,119.82-188.86,153.3-489.1,326.58-1048.2,232.45-1221.06,200.28-278.89-51.91-514.31-88.52-716.58-271.27C-112.06,2075.92-89.7,1209.7,261.5,673.11c41.64-63.63,392.31-583.43,952.62-656.67,13.7-1.79,23.93-2.81,32.88-3.76C1333.68,3.5,1870.81-44.93,2308.79,322c62.69,52.53,163.58,147.27,257.14,291.77C2908,1142.11,2909.12,1960.4,2474.05,2408.85Z" transform="translate(487)"/><path class="cls-4" d="M737.25,501.65a9.4,9.4,0,0,1,4.36,11.78c-3.92,9.86-8.33,19.7-13.1,29.24a9.39,9.39,0,0,1-12.6,4.2l-.17-.09a9.38,9.38,0,0,1-4-12.51c4.53-9.07,8.72-18.41,12.44-27.77a9.39,9.39,0,0,1,12.2-5.26A9.17,9.17,0,0,1,737.25,501.65Zm-38.53,72.19a9.42,9.42,0,0,1,3.4,13.64c-6,8.79-12.48,17.41-19.19,25.61a9.4,9.4,0,1,1-14.55-11.89c6.38-7.8,12.52-16,18.24-24.34A9.39,9.39,0,0,1,698.72,573.84Zm-53.46,61.92a9.4,9.4,0,0,1,2,15.22c-7.81,7.21-16,14.18-24.44,20.7a9.39,9.39,0,1,1-11.52-14.84c8-6.2,15.79-12.81,23.21-19.66A9.39,9.39,0,0,1,645.26,635.76Zm-66,48.41a9.39,9.39,0,0,1,.29,16.46c-9.23,5.29-18.8,10.25-28.45,14.73a9.39,9.39,0,0,1-7.91-17c9.16-4.26,18.25-9,27-14A9.4,9.4,0,0,1,579.28,684.17Zm-75.12,32.48a9.39,9.39,0,0,1-1.62,17.3c-10.15,3.1-20.58,5.81-31,8a9.39,9.39,0,1,1-3.95-18.36c9.89-2.13,19.8-4.71,29.45-7.65A9.37,9.37,0,0,1,504.16,716.65Zm-80.43,15.06a9.39,9.39,0,0,1-3.66,17.69c-10.61.78-21.38,1.11-32,1a9.39,9.39,0,0,1,.22-18.78c10.1.11,20.33-.21,30.41-1A9.34,9.34,0,0,1,423.73,731.71Zm-315.22-140a9.34,9.34,0,0,1,3,2.55c6.2,8,12.83,15.76,19.71,23.18a9.39,9.39,0,0,1-13.78,12.77c-7.24-7.81-14.23-16-20.75-24.41a9.4,9.4,0,0,1,11.78-14.09ZM342,728.57a9.39,9.39,0,0,1-5.78,17.6c-10.51-1.59-21.08-3.67-31.41-6.16a9.39,9.39,0,1,1,4.4-18.26c9.82,2.37,19.85,4.34,29.84,5.85A9.66,9.66,0,0,1,342,728.57ZM165.73,650.2a9.7,9.7,0,0,1,1.57,1c7.83,6.38,16,12.5,24.4,18.2A9.39,9.39,0,1,1,181.11,685c-8.79-6-17.43-12.44-25.67-19.15a9.4,9.4,0,0,1,10.29-15.61Zm97.33,57a9.39,9.39,0,0,1-7.83,17c-9.88-3.9-19.72-8.29-29.25-13l-.18-.09a9.39,9.39,0,0,1,8.55-16.73c9.06,4.51,18.41,8.67,27.79,12.38C262.45,707,262.76,707.1,263.06,707.25Z" transform="translate(487)"/><path class="cls-4" d="M72.87,536.21a9.42,9.42,0,0,1,4,4c2.23,4.3,4.6,8.62,7,12.85a9.39,9.39,0,1,1-16.29,9.34c-2.55-4.44-5-9-7.39-13.5a9.4,9.4,0,0,1,12.7-12.66Z" transform="translate(487)"/><path class="cls-4" d="M50.23,250.74a9.4,9.4,0,0,1,4.53,11.31c-1.54,4.58-3,9.29-4.37,14a9.39,9.39,0,1,1-18-5.24c1.43-4.92,3-9.87,4.6-14.71a9.4,9.4,0,0,1,13.28-5.32Z" transform="translate(487)"/><path class="cls-4" d="M566.64,42.75q5.73,3,11.42,6.24a9.4,9.4,0,1,1-9.28,16.34c-8.74-5-17.66-9.56-26.62-13.71a9.39,9.39,0,0,1,7.89-17C555.6,37.14,561.18,39.89,566.64,42.75Zm52.77,33.62a9.87,9.87,0,0,1,1.35.86c8.33,6.36,16.48,13.14,24.23,20.16a9.39,9.39,0,1,1-12.62,13.92c-7.35-6.66-15.1-13.11-23-19.15a9.39,9.39,0,0,1,10-15.79ZM503.87,17a9.4,9.4,0,0,1-7.12,17.3c-9.49-2.9-19.23-5.44-29-7.53a9.39,9.39,0,0,1,3.95-18.37c10.25,2.21,20.51,4.88,30.51,7.94A9.64,9.64,0,0,1,503.87,17ZM677.65,132a9.37,9.37,0,0,1,2.83,2.29c6.73,8,13.19,16.44,19.21,25a9.39,9.39,0,1,1-15.37,10.8C678.6,162,672.47,154,666.08,146.35A9.4,9.4,0,0,1,677.65,132ZM424.78,2.09a9.39,9.39,0,0,1-5.06,17.69c-9.89-.74-20-1.07-29.91-1A9.39,9.39,0,0,1,389.63,0c10.48-.1,21.08.24,31.49,1A9.18,9.18,0,0,1,424.78,2.09ZM344.34,4.94a9.39,9.39,0,0,1-3,17.61c-9.85,1.45-19.75,3.32-29.42,5.57a9.39,9.39,0,1,1-4.26-18.29c10.18-2.37,20.6-4.34,30.95-5.86A9.35,9.35,0,0,1,344.34,4.94ZM266.43,25.26a9.39,9.39,0,0,1-1,17.09c-9.3,3.55-18.55,7.53-27.5,11.84a9.39,9.39,0,1,1-8.14-16.93c9.41-4.53,19.15-8.72,28.94-12.46A9.35,9.35,0,0,1,266.43,25.26ZM194.82,62.08a9.24,9.24,0,0,1,3.46,3.13,9.37,9.37,0,0,1-2.64,13c-8.29,5.5-16.45,11.41-24.23,17.58a9.39,9.39,0,1,1-11.67-14.72c8.2-6.5,16.79-12.73,25.52-18.51A9.37,9.37,0,0,1,194.82,62.08ZM133,113.74a9.59,9.59,0,0,1,2.14,1.54,9.39,9.39,0,0,1,.29,13.28c-6.86,7.17-13.51,14.73-19.75,22.48a9.39,9.39,0,1,1-14.62-11.8c6.57-8.15,13.57-16.11,20.8-23.66A9.39,9.39,0,0,1,133,113.74ZM84.1,177.68l.51.29a9.39,9.39,0,0,1,3.17,12.89C84,197.13,80.36,203.59,77,210.06c-1.23,2.34-2.42,4.7-3.6,7.05a9.39,9.39,0,0,1-12.59,4.24,9.29,9.29,0,0,1-4.23-12.59q1.85-3.72,3.78-7.42c3.57-6.81,7.4-13.6,11.39-20.19A9.39,9.39,0,0,1,84.1,177.68Z" transform="translate(487)"/><path class="cls-4" d="M722.31,199.3a9.31,9.31,0,0,1,4,4c2.32,4.52,4.6,9.18,6.76,13.84a9.39,9.39,0,1,1-17,7.9c-2.06-4.42-4.22-8.85-6.43-13.14a9.39,9.39,0,0,1,12.72-12.61Z" transform="translate(487)"/><path class="cls-4" d="M660.5,289.9a4.38,4.38,0,0,0-3.73-3.47l-53-6.95A232.7,232.7,0,0,0,561.59,217l13.3-51.71a4.39,4.39,0,0,0-1.83-4.76l-53.47-35.33a4.4,4.4,0,0,0-5.1.18L472.15,157.9a232.61,232.61,0,0,0-74-14.3l-27.18-46a4.41,4.41,0,0,0-4.66-2.07l-62.79,12.84A4.38,4.38,0,0,0,300,112.1l-6.95,53a232.7,232.7,0,0,0-62.49,42.21L178.85,194a4.37,4.37,0,0,0-4.76,1.83l-35.33,53.47a4.39,4.39,0,0,0,.19,5.1l32.52,42.34a232.88,232.88,0,0,0-14.3,74l-46,27.18a4.41,4.41,0,0,0-2.07,4.66l12.84,62.79a4.39,4.39,0,0,0,3.73,3.48l53,6.95a232.7,232.7,0,0,0,42.21,62.49L207.55,590a4.37,4.37,0,0,0,1.83,4.76l53.47,35.33a4.39,4.39,0,0,0,5.1-.19l42.34-32.52a232.88,232.88,0,0,0,74,14.3l27.18,46a4.41,4.41,0,0,0,4.66,2.07L479,646.93a4.39,4.39,0,0,0,3.48-3.73l6.95-53A232.7,232.7,0,0,0,551.88,548l51.71,13.3a4.39,4.39,0,0,0,4.76-1.83L643.68,506a4.39,4.39,0,0,0-.19-5.1L611,458.57a232.77,232.77,0,0,0,14.3-74l46-27.18a4.41,4.41,0,0,0,2.07-4.66Z" transform="translate(487)"/><path class="cls-3" d="M421.17,320.61a64.44,64.44,0,1,1-8.68-3.77A64.52,64.52,0,0,1,421.17,320.61Zm-53,100.74a49.4,49.4,0,1,0-21.47-22.27A49.06,49.06,0,0,0,368.19,421.35Z" transform="translate(487)"/><path class="cls-3" d="M463.2,237.59a160.37,160.37,0,0,1,14,8.27h0q2.16,1.42,4.26,2.92A159.05,159.05,0,0,1,501,265l.25.24.69.69c.45.45.9.9,1.34,1.36a3.75,3.75,0,0,1-5.37,5.25,151,151,0,0,0-169.62-32.21A150,150,0,0,0,264,294.86a152.2,152.2,0,0,0-7.89,13.38,150.92,150.92,0,0,0,50.62,195.69C376.2,549.8,470,530.62,515.81,461.2a151,151,0,0,0,24.86-76.43,3.79,3.79,0,0,1,.43-1.58,3.76,3.76,0,0,1,7.08,1.91,158.46,158.46,0,0,1-26.1,80.24c-48.14,72.88-146.62,93-219.48,44.86a158.46,158.46,0,0,1-53.15-205.44q3.77-7.17,8.29-14A158.44,158.44,0,0,1,463.2,237.59Z" transform="translate(487)"/><path class="cls-4" d="M1136.06,431.24a5.81,5.81,0,0,1,3,6.28c-1,4.83-2.09,9.69-3.35,14.46a5.8,5.8,0,1,1-11.22-3c1.2-4.54,2.27-9.18,3.19-13.79a5.8,5.8,0,0,1,8.38-4Z" transform="translate(487)"/><path class="cls-4" d="M1123.34,474a5.79,5.79,0,0,1,2.68,7.29,252.91,252.91,0,0,1-10.68,23.18c-.83,1.58-1.68,3.15-2.55,4.73a6,6,0,0,1-7.88,2.28,5.8,5.8,0,0,1-2.28-7.88c.83-1.51,1.64-3,2.43-4.52A241.51,241.51,0,0,0,1115.25,477a5.82,5.82,0,0,1,7.55-3.23C1123,473.84,1123.16,473.92,1123.34,474Zm-29.09,52.74a5.93,5.93,0,0,1,.71.44,5.8,5.8,0,0,1,1.3,8.1,251,251,0,0,1-19.58,23.87,5.8,5.8,0,1,1-8.5-7.89,241.52,241.52,0,0,0,18.68-22.77A5.8,5.8,0,0,1,1094.25,526.76Zm-41,44.12a5.78,5.78,0,0,1,1,9.58,248.16,248.16,0,0,1-24.87,18.34,5.8,5.8,0,1,1-6.29-9.75,236.92,236.92,0,0,0,23.71-17.48A5.79,5.79,0,0,1,1053.23,570.88Zm-50.6,32.68a5.87,5.87,0,0,1,2.53,2.61,5.8,5.8,0,0,1-2.71,7.75,252.19,252.19,0,0,1-28.59,11.7,5.81,5.81,0,0,1-3.72-11,239.53,239.53,0,0,0,27.27-11.14A5.78,5.78,0,0,1,1002.63,603.56Zm-57,19.34a5.8,5.8,0,0,1-1.52,10.82,252.23,252.23,0,0,1-30.55,4.39,5.8,5.8,0,1,1-1-11.56,241.31,241.31,0,0,0,29.15-4.2A5.81,5.81,0,0,1,945.58,622.9Zm-60,4.9a5.8,5.8,0,0,1-2.93,10.94,248.6,248.6,0,0,1-30.7-3.2,5.8,5.8,0,1,1,1.91-11.44,239.17,239.17,0,0,0,29.27,3A5.72,5.72,0,0,1,885.57,627.8Zm-59.37-9.92a5.8,5.8,0,0,1-4.35,10.7,251.31,251.31,0,0,1-29-10.64,5.8,5.8,0,0,1,4.66-10.63,238.63,238.63,0,0,0,27.65,10.15A5.65,5.65,0,0,1,826.2,617.88Zm-80.11-41.17a6.31,6.31,0,0,1,.86.56A243,243,0,0,0,768,591.83c1.1.69,2.19,1.35,3.29,2a5.79,5.79,0,0,1,2,7.94,5.73,5.73,0,0,1-7.94,2c-1.17-.69-2.33-1.39-3.48-2.11a249.83,249.83,0,0,1-22.07-15.26,5.8,5.8,0,0,1,6.24-9.73Z" transform="translate(487)"/><path class="cls-4" d="M1006.61,164.87a5.8,5.8,0,0,1-5.32,10.31,242.8,242.8,0,0,0-26.57-11.53,5.8,5.8,0,1,1,4-10.9,251.23,251.23,0,0,1,27.86,12.09Zm25.61,15a5.09,5.09,0,0,1,.54.32A253.66,253.66,0,0,1,1057,198.58a5.8,5.8,0,0,1-7.57,8.8,241.26,241.26,0,0,0-23.08-17.54,5.8,5.8,0,0,1,5.92-10Zm-81.28-35.24a5.8,5.8,0,0,1-4,10.79,241.65,241.65,0,0,0-28.58-4.76,5.8,5.8,0,0,1,1.21-11.54,250.15,250.15,0,0,1,30,5A6,6,0,0,1,950.94,144.64Zm126.2,73.9a5.53,5.53,0,0,1,1.6,1.23,248.86,248.86,0,0,1,19,23.69,5.8,5.8,0,1,1-9.47,6.7,238.43,238.43,0,0,0-18.15-22.58,5.8,5.8,0,0,1,7-9ZM892,138.47a5.8,5.8,0,0,1-2.59,10.94,240.62,240.62,0,0,0-28.88,2.25,5.8,5.8,0,1,1-1.6-11.49,251.58,251.58,0,0,1,30.28-2.36A5.8,5.8,0,0,1,892,138.47Zm-58.67,8.14a5.81,5.81,0,0,1-1.21,10.75,241.5,241.5,0,0,0-27.52,9.09,5.8,5.8,0,1,1-4.3-10.78,254.31,254.31,0,0,1,28.85-9.53A5.82,5.82,0,0,1,833.36,146.61Zm-55,22a5.69,5.69,0,0,1,2.39,2.35,5.79,5.79,0,0,1-2.3,7.87,237.4,237.4,0,0,0-24.54,15.43,5.8,5.8,0,0,1-6.76-9.43,250.43,250.43,0,0,1,25.73-16.18A5.79,5.79,0,0,1,778.32,168.58Z" transform="translate(487)"/><path class="cls-4" d="M1111.52,267.14a5.78,5.78,0,0,1,2.41,2.39c2.35,4.37,4.58,8.84,6.64,13.27a5.8,5.8,0,0,1-10.53,4.88c-2-4.23-4.09-8.48-6.33-12.66a5.8,5.8,0,0,1,7.81-7.88Z" transform="translate(487)"/><path class="cls-4" d="M1072.45,331.28A2.94,2.94,0,0,0,1070,329l-35.45-4.65a155.85,155.85,0,0,0-28.24-41.81l8.9-34.61a2.93,2.93,0,0,0-1.23-3.18l-35.78-23.64a3,3,0,0,0-3.41.12L946.41,243a155.63,155.63,0,0,0-49.54-9.57L878.68,202.6a3,3,0,0,0-3.12-1.39l-42,8.59a3,3,0,0,0-2.33,2.5l-4.65,35.45A155.62,155.62,0,0,0,784.76,276l-34.61-8.9a2.94,2.94,0,0,0-3.18,1.22L723.33,304.1a2.93,2.93,0,0,0,.12,3.4l21.77,28.34a155.42,155.42,0,0,0-9.57,49.55l-30.78,18.18a3,3,0,0,0-1.39,3.12l8.59,42a2.92,2.92,0,0,0,2.5,2.32L750,455.68a155.51,155.51,0,0,0,28.24,41.82l-8.9,34.6a2.94,2.94,0,0,0,1.22,3.19l35.79,23.64a2.92,2.92,0,0,0,3.4-.13L838.11,537a155.91,155.91,0,0,0,49.54,9.57l18.19,30.78a2.94,2.94,0,0,0,3.12,1.38l42-8.59a2.93,2.93,0,0,0,2.32-2.49L958,532.24A155.74,155.74,0,0,0,999.77,504l34.6,8.9a2.94,2.94,0,0,0,3.19-1.23l23.63-35.78a2.93,2.93,0,0,0-.12-3.41l-21.76-28.34a155.85,155.85,0,0,0,9.57-49.54l30.78-18.19a2.92,2.92,0,0,0,1.38-3.11Z" transform="translate(487)"/><path class="cls-3" d="M912.72,351.17a43.87,43.87,0,1,1-6-2.6A44.87,44.87,0,0,1,912.72,351.17Zm-35.46,67.41a34,34,0,0,0,4.35,1.89,32.28,32.28,0,0,0,21.31-61h0a32.28,32.28,0,0,0-25.66,59.06Z" transform="translate(487)"/><path class="cls-3" d="M942.05,293.42a107.08,107.08,0,0,1,9.57,5.65,109.59,109.59,0,0,1,17.25,14.08l.7.72a5.8,5.8,0,0,1-8.29,8.11,98.48,98.48,0,0,0-16-13.23h0l-1-.62A96.67,96.67,0,0,0,899,292.82a98.13,98.13,0,0,0-26.26,1.55l-.21,0-.65.14a97,97,0,0,0-62,41.86q-2.79,4.23-5.11,8.65a97.69,97.69,0,0,0,168.12,99q2.75-4.15,5.05-8.54a97.57,97.57,0,0,0,11-40.94,5.9,5.9,0,0,1,.65-2.44,5.81,5.81,0,0,1,10.94,2.95,109.29,109.29,0,1,1-206.1-55.42A111.66,111.66,0,0,1,800.2,330,109.43,109.43,0,0,1,942.05,293.42Z" transform="translate(487)"/><path class="cls-5" d="M2811.79,2252.47,2769.43,791.91c-4-139.6-87.3-251.17-190.58-255.43L319.38,443.31C212.82,438.92,123.06,550.08,117,694L48.23,2320.41c-6.55,155,86.07,284.6,200.87,281.08l2370.58-72.69C2729.57,2525.43,2816.1,2401,2811.79,2252.47Z" transform="translate(487)"/><path class="cls-4" d="M2712.67,2194.33a326.78,326.78,0,0,1-8.59,85.11c-23.07,96.93-89.53,168.33-169.27,170.71L340.08,2517.47c-106.29,3.24-192-116.76-185.95-260.24l14.13-334.29,14.12-334.88,10.73-253.18,24.68-583.39c5.61-133.18,88.67-236.16,187.39-232.07l558.37,23.06L2497,605.71c95.57,3.92,172.68,107.23,176.42,236.42l25.36,873.16Z" transform="translate(487)"/><path class="cls-3" d="M236.8,1343.27c86.95,70.45,260.47,180.79,357.52,79.63,28.37-29.56,48.51-66,74.88-97.38,74.94-89.16,198.62-130.4,314.31-116.93,63.31,7.38,123.88,29.88,178.39,63a530.44,530.44,0,0,1,121,101.66c31.37,35.48,58.5,74.91,93.4,106.91,85.12,78,198.3,88,305.26,53.2,38.12-12.4,78.64-29.42,97.93-64.57,18.66-34,12.41-75.47,10.47-114.21-3.07-61.16,7.18-125.43,43.38-174.81,55.24-75.37,156.49-99.43,249.66-106.54s190.64-3.52,275-43.74c7.14-3.41,14.47-7.41,18.69-14.09,6.57-10.42,3.76-23.83,3.66-36.14C2379.43,876.92,2508,866.24,2577.91,848c32.86-8.58,66-19.5,92.75-40.4,1-.8,2.05-1.66,3.06-2.51-15.56-112.22-87.13-197.47-173.88-201L962.3,540.64,402.46,517.52c-99-4.1-182.26,99.15-187.89,232.69l-23.26,549.85C204.26,1316.31,220.55,1330.11,236.8,1343.27Z" transform="translate(487)"/><path class="cls-3" d="M147.36,2263.31c-6.06,143.86,79.87,264.18,186.44,260.94l799.32-24.52L2337,2462.8c95.72-2.93,242.86,14.84,317-50.78,34.51-30.54,71.58-368.25,55.51-414.84-111.19-26.53-225.6-23.92-336.93-51.75-101.77-25.53-170.45-123.18-268.42-160.73-97.21-37.25-201.3-8.9-298.46,12.87-103.57,23.22-187.89,29-291.41,8.25-30.33-6.07-60.26-15.78-89.42-26.09-54.95-19.44-110.62-42.23-152.28-83-42.68-41.75-67.08-98.91-107.29-143-46-50.47-113.39-89-177-112.49-76.84-28.42-164.44-44-232.05,13.57-82.6,70.23-151.29,124-276.47,165.71-65.87,22-137.22,23.48-204.29,6-21.85-5.7-63.73-35.23-85.38-34.26-5.23.24-10.12,3.19-14.7,8.36l-13.82,327.56Z" transform="translate(487)"/><g class="cls-6"><rect class="cls-7" x="755.31" y="517.01" width="3.39" height="1998.35"/><rect class="cls-7" x="1182.08" y="517.01" width="3.39" height="1998.35"/><rect class="cls-7" x="1612.23" y="517.01" width="3.39" height="1998.35"/><rect class="cls-7" x="2032.22" y="517.01" width="3.39" height="1998.35"/><rect class="cls-7" x="2462.38" y="517.01" width="3.39" height="1998.35"/><rect class="cls-7" x="2889.15" y="517.01" width="3.39" height="1998.35"/><rect class="cls-7" y="456.04" width="3332.85" height="3.39"/><rect class="cls-7" y="886.19" width="3332.85" height="3.39"/><rect class="cls-7" y="1309.57" width="3332.85" height="3.39"/><rect class="cls-7" x="20.32" y="1732.95" width="3332.85" height="3.39"/><rect class="cls-7" x="20.32" y="2166.5" width="3332.85" height="3.39"/><rect class="cls-7" x="20.32" y="2586.49" width="3332.85" height="3.39"/></g><g class="cls-8"><rect class="cls-7" x="850.15" y="618.62" width="264.19" height="108.39" rx="53.63"/></g><path class="cls-9" d="M1160.36,927.25c0,25.64-66.71,41.53-147.56,35.6-79.33-5.82-142.54-30.53-142.54-55.3s63.21-40.9,142.54-35.94C1093.65,876.66,1160.36,901.61,1160.36,927.25Z" transform="translate(487)"/><path class="cls-10" d="M1095.7,901.18c0,24.32-37.32,41.39-82.9,38.18-45.09-3.18-81.29-25.06-81.29-48.91s36.2-298.8,81.29-297.49C1058.38,594.29,1095.7,876.87,1095.7,901.18Z" transform="translate(487)"/><path class="cls-10" d="M1030,550.75c0,15.37-7.73,30.9-17.24,30.64s-17.17-16.16-17.17-31.47,7.68-24.29,17.17-24.09S1030,535.38,1030,550.75Z" transform="translate(487)"/><path class="cls-9" d="M589.35,1911.93c0,24.88-62.83,39.09-139,31.85-74.77-7.09-134.37-32.25-134.37-56.3s59.6-38.55,134.37-32.27C526.52,1861.6,589.35,1887.05,589.35,1911.93Z" transform="translate(487)"/><path class="cls-10" d="M528.45,1885.44c0,23.6-35.16,39.49-78.12,35.54-42.5-3.92-76.62-25.83-76.62-49s34.12-289.44,76.62-287.3C493.29,1586.86,528.45,1861.84,528.45,1885.44Z" transform="translate(487)"/><path class="cls-10" d="M466.58,1544.05c0,14.93-7.28,29.85-16.25,29.41s-16.18-16-16.18-30.87,7.24-23.43,16.18-23.06S466.58,1529.13,466.58,1544.05Z" transform="translate(487)"/><path class="cls-9" d="M460.29,1197.83c0,15.45-39.24,25.66-87,22.84-47.13-2.77-84.86-17.2-84.86-32.26s37.73-25.36,84.86-23C421.05,1167.87,460.29,1182.39,460.29,1197.83Z" transform="translate(487)"/><path class="cls-10" d="M422.26,1182.66c0,14.68-22,25.33-49,23.79-26.76-1.52-48.3-14.47-48.3-28.94s21.54-181.42,48.3-180.72C400.24,997.49,422.26,1168,422.26,1182.66Z" transform="translate(487)"/><path class="cls-10" d="M383.47,971.22c0,9.3-4.57,18.71-10.21,18.57s-10.18-9.75-10.18-19,4.56-14.72,10.18-14.61S383.47,961.92,383.47,971.22Z" transform="translate(487)"/><path class="cls-9" d="M1448.4,2079.35c0,22.21-65.66,37.61-145.38,34.45-78.36-3.12-140.89-23.05-140.89-44.58s62.53-37,140.89-34.61C1382.74,2037.09,1448.4,2057.13,1448.4,2079.35Z" transform="translate(487)"/><path class="cls-10" d="M1384.75,2058.3c0,21.08-36.77,36.79-81.73,35.11-44.53-1.67-80.3-19.8-80.3-40.51s35.77-260.29,80.29-260.1C1348,1793,1384.75,2037.22,1384.75,2058.3Z" transform="translate(487)"/><path class="cls-10" d="M1320,1755.82c0,13.34-7.62,27-17,26.94s-16.94-13.67-16.94-27,7.58-21.24,16.94-21.26S1320,1742.48,1320,1755.82Z" transform="translate(487)"/><path class="cls-10" d="M2031.91,1125.85l16,27.92h132l18.9-29a2.41,2.41,0,0,0-2-3.73H2034.69A3.21,3.21,0,0,0,2031.91,1125.85Z" transform="translate(487)"/><path class="cls-10" d="M2098.38,1133.31c27.57-69.35,26.23-141.09,4.09-214.57,52.2,25.94,87.29,58.65,93.2,124.11C2191.58,1086,2166.84,1112.37,2098.38,1133.31Z" transform="translate(487)"/><rect class="cls-10" x="2588.56" y="918.74" width="6.36" height="218.66" rx="0.94"/><path class="cls-9" d="M1691.08,1378.67c0,17.67-51.32,30.94-113.77,29.65-61.51-1.27-110.7-16.23-110.7-33.42s49.19-30.49,110.7-29.69C1639.76,1346,1691.08,1361,1691.08,1378.67Z" transform="translate(487)"/><path class="cls-10" d="M1641.33,1362.88c0,16.78-28.78,29.84-64,29.19-34.93-.66-63-14.58-63-31.1s28.11-208.13,63-208.49C1612.55,1152.11,1641.33,1346.09,1641.33,1362.88Z" transform="translate(487)"/><path class="cls-10" d="M1590.65,1122.81c0,10.62-6,21.58-13.34,21.66s-13.29-10.7-13.29-21.29,6-17,13.29-17.13S1590.65,1112.18,1590.65,1122.81Z" transform="translate(487)"/><path class="cls-7" d="M1139.78,926.86c67.19,24.38,136.68,42.84,206.54,59.2s140.51,29.79,211.33,41.91,142,22.45,213.33,31.11,143,15.69,214.79,18.61l0,.86c-71.93-1.86-143.68-8-215.22-15.47s-142.91-17-214-28-142-23.59-212.44-38.9-140.43-32.88-208.86-56.57Z" transform="translate(487)"/><path class="cls-7" d="M1152.76,984.71a6.78,6.78,0,0,1-6.43-4.63l-1.33-4c-5.61-17.1-11.41-34.78-33-47.29a6.77,6.77,0,0,1,5.73-12.22c16.69,6.13,36.23,2.79,66.45-5.5a6.77,6.77,0,1,1,3.59,13.06c-19.75,5.43-35.45,8.85-49.19,9.14,10.78,12.5,15.39,26.54,19.34,38.58l1.31,4a6.77,6.77,0,0,1-4.27,8.58A7.06,7.06,0,0,1,1152.76,984.71Z" transform="translate(487)"/><path class="cls-4" d="M1893.91,452.24,2591.2,477.5a33.2,33.2,0,0,0,34.36-31.28l4.84-83.76a33.22,33.22,0,0,0-31.85-35.1L1901.4,299.68A33.22,33.22,0,0,0,1866.92,331l-5,86.17A33.21,33.21,0,0,0,1893.91,452.24Z" transform="translate(487)"/><polygon class="cls-11" points="3084.67 450.23 3090.16 355.06 2382.74 327.42 2377.16 424.15 3084.67 450.23"/><path class="cls-4" d="M1746.78,446.83l204.31,7.41a38.89,38.89,0,0,0,37.27-53.89L1927.88,256a38.87,38.87,0,0,0-34.26-23.83L1758,226.57a38.88,38.88,0,0,0-40.43,36.61l-8.22,142.55A38.88,38.88,0,0,0,1746.78,446.83Z" transform="translate(487)"/><polygon class="cls-11" points="2455.55 426.96 2385.68 260.34 2233.92 254.18 2224.45 418.44 2455.55 426.96"/><polygon class="cls-7" points="3015.4 433.21 3065.23 435.06 3069.06 368.68 3019.24 366.75 3015.4 433.21"/><polygon class="cls-7" points="2947.7 430.69 2997.68 432.55 3001.52 366.07 2951.54 364.13 2947.7 430.69"/><polygon class="cls-7" points="2879.78 428.16 2929.92 430.03 2933.76 363.44 2883.63 361.5 2879.78 428.16"/><polygon class="cls-4" points="2811.65 425.63 2861.95 427.5 2865.8 360.81 2815.51 358.86 2811.65 425.63"/><polygon class="cls-4" points="2743.31 423.08 2793.76 424.96 2797.62 358.17 2747.17 356.21 2743.31 423.08"/><polygon class="cls-4" points="2674.75 420.54 2725.36 422.42 2729.22 355.52 2678.61 353.56 2674.75 420.54"/><polygon class="cls-4" points="2605.98 417.98 2656.75 419.87 2660.61 352.86 2609.85 350.9 2605.98 417.98"/><polygon class="cls-4" points="2536.99 415.41 2587.92 417.31 2591.79 350.2 2540.86 348.22 2536.99 415.41"/><path class="cls-12" d="M2666.11,1715.42s133.64,74,144.7,199.33.92,645.35-267.07,773.35-622.71,98.5-758.5,84.51-211.06-106.27-227.88-169.81-44-300.22,98.86-376.56S1949.08,2032.93,2099,1919,2505.81,1619.23,2666.11,1715.42Z" transform="translate(487)"/><path class="cls-5" d="M1698.34,2269.43s36.07,1.91,40.49,76.12c0,0-83.64,75-196.62,92.82-8.48,1.34,11.86-57.9,14.92-65.92C1571.68,2334.26,1617.5,2309.67,1698.34,2269.43Z" transform="translate(487)"/><path class="cls-10" d="M2104.56,2182.18h-76.12s-233.62-258-386.84-284c0,0-106.66,136.15,5.68,390.54,9,20.47,34.31,29.56,53.16,17.52a30.44,30.44,0,0,0,12.15-14.48l-9-217.21s199.28,174.29,233.92,207.93S2148.18,2295.56,2104.56,2182.18Z" transform="translate(487)"/><path class="cls-5" d="M1368.68,2723.89c31.89-27.95,82.72-59.32,156.08-68.31l24.82,15.18s-15.82,23.33-44.73,48c-26.56,15.43-67.58,36.32-101.59,40.85C1370.19,2764,1365.32,2744,1368.68,2723.89Z" transform="translate(487)"/><path class="cls-9" d="M1557.13,2372.45c19.65,6.36,28.29,34.2,78.15,15.79a441.14,441.14,0,0,0,102.55-54c.42,3.59.76,7.34,1,11.34,0,0-88.19,83.88-201.17,101.73a11.25,11.25,0,0,1-12.14-15.16A283.3,283.3,0,0,1,1557.13,2372.45Z" transform="translate(487)"/><path class="cls-9" d="M1344.65,2747.75a263.38,263.38,0,0,1,24-23.86c-3.36,20.14,1.51,40.12,34.58,35.71,34-4.53,75-25.42,101.59-40.85-33.29,28.39-83.95,58.53-147.89,56.76C1342.75,2775.12,1335.26,2758.42,1344.65,2747.75Z" transform="translate(487)"/><path class="cls-10" d="M2101.77,2237.25l-356.44,3.86s-203.56,168.41-240.48,425.22c0,0-6.13,18.88,30.67,22.11,0,0,123.07-80.37,203.31-222.48,98.4-174.25,293.33-95.82,293.33-95.82,64-46.17,154.55-55.58,222.73-71Z" transform="translate(487)"/><path class="cls-13" d="M2093.36,1950.11S2055,2142.42,1867,2218.5l-66.87-7.89-15.79,25.17,156.88,5s134.09-53.11,205.14-197.83C2148.68,2038.16,2187.8,1957.38,2093.36,1950.11Z" transform="translate(487)"/><path class="cls-5" d="M2072.79,2234.11s43.64-118.62,53-233.87c0,0-31.92-27.43-51.88-39.27a14.43,14.43,0,0,1-5.63-18.71c14.67-30.39,103.38-149.71,110-151.37,36.12-9,184.25-79.45,288.58,63.26,44.78,61.24-8.88,249.78-212,445l-41.91,8Z" transform="translate(487)"/><path class="cls-14" d="M2240.93,2026.23s-121.23,143.55-276.23,164.53c0,0-40-36.52-69.84-23.48s-70.63,70.59-70.63,70.59h199s188.17-6.63,282.21-120.74C2297.89,2077.2,2275.23,2053.35,2240.93,2026.23Z" transform="translate(487)"/><path class="cls-15" d="M2311.66,1690.21l26.52,88.47a9.71,9.71,0,0,1-3.77,10.83c-12.77,8.75-46.15,26.14-91.94,9.24a14.43,14.43,0,0,1-9.28-12.39l-6.29-77.07Z" transform="translate(487)"/><path class="cls-16" d="M2156.33,1618.56s13,91.71,48.27,119.91,103.87,7,127.05-62.17l-46.19-118.21Z" transform="translate(487)"/><path class="cls-5" d="M2290.67,1634.58a4.54,4.54,0,0,1-5.91-3.63c-1.27-8.47-4.44-25.23-10.87-36.64,0,0,3.36-12-30.41,6.15s-84.49,44.87-114.35,29c-29.12-15.51-58.61-93.52,18.34-79.07a4.54,4.54,0,0,0,5.4-4.75c-.95-12.82.32-42.32,30.2-51.79,27.95-8.86,12.94,5.5,19.25,13.12,1.85,2.24-2.35-7.63,37.38-1.86,13.62,2,31.11-34.2,64.59-19.45,27.57,12.16,31.86,29.14,31.41,39.73a4.52,4.52,0,0,0,6.45,4.31c8.44-3.89,22-5.91,35,10.4,18,22.54-7.72,42.08-15.43,47.21a4.55,4.55,0,0,0-2.06,3.74c-.07,11.73-1.9,62.86-27.52,91.7a4.59,4.59,0,0,1-7.62-1.32l-19.73-47a4.57,4.57,0,0,0-5.6-2.58Z" transform="translate(487)"/><path class="cls-17" d="M2290.25,1644.13s12.05-49.08,30.35-33.14-4.77,51-25.74,57.68Z" transform="translate(487)"/><path class="cls-5" d="M1834.25,2249l-89.36-298a30.46,30.46,0,0,0-27.11-21.65l-120.64-8.25a17.1,17.1,0,0,0-17.31,22.73l99.89,284.59a25.06,25.06,0,0,0,21.12,16.63l118.8,13.19Z" transform="translate(487)"/><path class="cls-10" d="M1669.45,2052c6.67,13.47,18.19,21.35,25.73,17.62s8.25-17.68,1.58-31.15-18.2-21.35-25.74-17.62S1662.78,2038.54,1669.45,2052Z" transform="translate(487)"/><path class="cls-9" d="M1819.64,2258.25l.58,0,253.15-12.79a11.34,11.34,0,1,0-1.15-22.66l-253.14,12.79a11.35,11.35,0,0,0,.56,22.68Z" transform="translate(487)"/><path class="cls-10" d="M2125.81,2002.25a2,2,0,0,0,2-2c-.17-52.88,20.24-123.09,20.45-123.8a2,2,0,1,0-3.86-1.12c-.21.7-20.78,71.46-20.6,124.94A2,2,0,0,0,2125.81,2002.25Z" transform="translate(487)"/><path class="cls-10" d="M2240.93,2028.24a2,2,0,0,0,1.58-.76c.55-.71,55.92-71.09,75-119.33a2,2,0,0,0-3.74-1.47c-18.82,47.68-73.82,117.61-74.38,118.31a2,2,0,0,0,.34,2.82A2,2,0,0,0,2240.93,2028.24Z" transform="translate(487)"/><path class="cls-10" d="M2318.84,2135.85l1.5-.64c80.1-34.29,129.57-129.93,130.06-130.89a2,2,0,1,0-3.57-1.82c-.49.94-48.7,94.12-126.59,128.37l-8.25-11.66a2,2,0,0,0-3.28,2.32Z" transform="translate(487)"/><path class="cls-9" d="M2245.77,1715.77c54.4-9.62,71.3-72.74,71.46-73.38l-4.07-1.05c-.16.61-16.41,61.14-68.12,70.29Z" transform="translate(487)"/><rect class="cls-9" x="2228.56" y="1705.41" width="23.96" height="14.94" rx="1.64" transform="translate(4968.07 3425.76) rotate(180)"/><path class="cls-9" d="M2298.78,1582.43s-41.09-80.32-96.46-75.48c0,0,13.18-10.57,30.93-6.83s68.66,35.37,79.4,81.19C2302.82,1587.47,2298.78,1582.43,2298.78,1582.43Z" transform="translate(487)"/><path class="cls-9" d="M2306.51,1575c30.86-1.55,36.75,36.47,36.75,36.47,9,26.39,4.56,41.74-3.89,50.68a23.93,23.93,0,0,1-40.06-8.83c-2.41-7.19-4.81-14-6-16.33C2290.47,1631.3,2275.65,1576.51,2306.51,1575Z" transform="translate(487)"/><path class="cls-9" d="M2306.21,1585a13.76,13.76,0,0,1,16.56,4.13c27.93,36.14,13.16,68.07,2.73,71.32-11,3.43-24.48-50.22-25.63-64.56C2299.39,1589.91,2302.47,1586.71,2306.21,1585Z" transform="translate(487)"/></g></g></g></svg>