<svg width="37" height="34" viewBox="0 0 37 34" fill="none" xmlns="http://www.w3.org/2000/svg">
<path d="M7.05764 0.48711C5.25041 1.06064 3.75945 3.44299 4.16607 5.16358C4.5727 6.92829 6.87691 8.69299 8.72932 8.69299C12.389 8.69299 14.4221 4.06064 11.8468 1.50182C10.4462 0.178287 9.04559 -0.130537 7.05764 0.48711ZM10.4462 2.29593C12.66 4.4577 10.7625 7.85476 7.78053 7.10476C5.79258 6.61946 5.06969 3.9724 6.51547 2.42829C7.41908 1.4577 9.4974 1.36946 10.4462 2.29593Z" fill="#454545"/>
<path d="M25.627 0.795931C21.9221 2.25181 22.0577 7.4577 25.8529 8.69299C28.9703 9.7077 31.7264 7.76652 31.6812 4.63417C31.5908 1.63417 28.4733 -0.351128 25.627 0.795931ZM29.7836 3.09005C30.9131 4.85475 29.5125 7.36946 27.3438 7.36946C26.124 7.36946 24.2715 6.04593 24.2715 5.2077C24.2715 4.06064 25.2655 2.4724 26.1691 2.11946C27.2986 1.7224 29.2414 2.25181 29.7836 3.09005Z" fill="#454545"/>
<path d="M15.9124 6.2224C12.4786 7.67828 12.7497 12.84 16.319 13.9871C19.4365 14.9577 22.2377 13.1048 22.2377 9.9724C22.2377 6.88417 18.8943 4.89887 15.9124 6.2224ZM20.2949 8.38417C21.4244 10.1489 20.0238 12.6636 17.8551 12.6636C16.6352 12.6636 14.7828 11.34 14.7828 10.5018C14.7828 9.35475 15.7768 7.76652 16.6804 7.41358C17.8099 7.01652 19.7527 7.54593 20.2949 8.38417Z" fill="#454545"/>
<path d="M3.93989 10.4577C1.50014 11.0312 0.460979 12.5312 0.0995329 16.1047C-0.261913 19.8989 0.325437 21.5312 2.44893 22.1047C3.217 22.3695 3.98507 22.8989 4.07544 23.34C4.3917 24.3989 8.00616 24.5312 8.00616 23.4724C8.00616 23.0312 7.55435 22.8106 6.65074 22.8106H5.3405L5.20495 19.1489C5.06941 15.0459 4.25616 14.3842 4.03026 18.1783C3.89471 20.4283 3.80435 20.6047 2.7652 20.6047C1.63568 20.6047 1.63568 20.5606 1.77122 17.0312C1.95194 12.3989 2.49411 11.9577 8.00616 11.5606C10.1297 11.3842 11.9369 11.2077 11.9821 11.1195C13.0212 10.1047 7.46399 9.66357 3.93989 10.4577Z" fill="#454545"/>
<path d="M25.5362 10.3694C24.4067 10.4577 23.8193 10.7224 23.8193 11.1636C23.8193 11.6047 24.4519 11.7812 26.4398 11.7812C28.7892 11.7812 31.4097 12.3106 33.8946 13.3253C34.482 13.5459 34.6627 13.4136 34.6627 12.7518C34.6627 12.1342 34.2109 11.693 33.1266 11.34C30.9579 10.6783 27.5242 10.193 25.5362 10.3694Z" fill="#454545"/>
<path d="M17.3583 15.5753C17.1775 15.7518 17.042 18.5312 17.042 21.7959V27.6636H22.1022H27.1625L30.6866 31.0606C34.8432 34.9871 35.792 34.9871 34.2558 31.0165C33.7137 29.6489 33.3071 28.3253 33.3071 28.1048C33.3071 27.8842 34.0751 27.6636 35.0239 27.5753L36.6956 27.443V21.4871V15.5312L27.1625 15.3989C21.9667 15.3548 17.539 15.443 17.3583 15.5753ZM35.1143 21.4871V26.3401H33.036C31.1384 26.3401 30.9577 26.4283 31.2287 27.2224C32.1324 30.1342 32.1324 30.1342 30.054 28.193L28.0661 26.3401H23.4577H18.8492V21.4871V16.6342H26.9818H35.1143V21.4871Z" fill="#454545"/>
<path d="M21.3345 21.0901C20.9731 21.6195 21.967 22.4577 22.6899 22.2371C22.961 22.1489 23.1417 21.7959 23.1417 21.443C23.1417 20.693 21.7411 20.3842 21.3345 21.0901Z" fill="#454545"/>
<path d="M25.8078 21.0901C25.6723 21.3548 25.7626 21.7959 25.9885 22.0165C26.5759 22.5901 28.0217 21.6636 27.6151 21.0018C27.2988 20.4724 26.2145 20.5165 25.8078 21.0901Z" fill="#454545"/>
<path d="M29.919 21.0459C29.7383 21.3547 29.7834 21.7518 30.0545 22.0165C30.6871 22.6342 32.0877 22.1047 31.8618 21.3547C31.5907 20.6489 30.3256 20.4283 29.919 21.0459Z" fill="#454545"/>
<path d="M12.2077 16.4136C10.1294 17.2959 9.36133 19.0606 9.36133 22.943C9.36133 25.5018 9.54205 26.34 10.1746 26.8694C11.2137 27.7959 12.7951 28.2371 13.8794 27.8842C14.7378 27.6194 14.8282 27.2665 14.6927 24.443C14.6023 21.9724 14.4216 21.2665 13.8794 21.2665C13.3824 21.2665 13.1565 21.8842 13.0661 23.7812C12.9306 25.9871 12.7951 26.34 12.0722 26.34C10.8975 26.34 10.536 24.7518 10.8975 21.5753C11.2137 18.9724 12.2529 17.5165 13.8794 17.5165C14.783 17.5165 15.8222 16.5018 15.3704 16.0606C14.9186 15.6194 13.789 15.7077 12.2077 16.4136Z" fill="#454545"/>
</svg>
