<svg width="264" height="41" viewBox="0 0 264 41" fill="none" xmlns="http://www.w3.org/2000/svg">
<path d="M21.9597 8.48109C22.4005 6.81219 21.4018 5.0723 19.6816 4.92954C16.8322 4.69308 13.9515 5.14481 11.2886 6.26718C7.65981 7.79664 4.64004 10.4853 2.70125 13.9128C0.762455 17.3404 0.0138916 21.3137 0.57256 25.2118C1.13123 29.1098 2.96564 32.713 5.78909 35.458C8.61253 38.203 12.2659 39.9353 16.1781 40.3839C20.0904 40.8326 24.0411 39.9725 27.4127 37.938C30.7843 35.9034 33.3868 32.8092 34.8135 29.1388C35.8604 26.4453 36.2309 23.553 35.9143 20.7114C35.7231 18.9959 33.9558 18.0466 32.3 18.5342C30.6442 19.0219 29.7436 20.7717 29.7714 22.4976C29.7954 23.9838 29.5328 25.4705 28.9872 26.8741C28.0611 29.2567 26.3717 31.2653 24.1831 32.586C21.9945 33.9067 19.43 34.465 16.8904 34.1738C14.3508 33.8825 11.9793 32.758 10.1465 30.9761C8.31368 29.1942 7.12289 26.8553 6.76024 24.3249C6.39759 21.7946 6.88351 19.2153 8.14205 16.9904C9.40059 14.7655 11.3608 13.0202 13.7164 12.0273C15.104 11.4425 16.5828 11.1381 18.0691 11.1203C19.7951 11.0995 21.5189 10.15 21.9597 8.48109Z" fill="white"/>
<path d="M24.0103 0.5C22.9181 0.5 22.8271 1.41013 22.9181 1.86519C24.0785 3.07111 26.6041 5.72868 27.4232 6.71161C28.0785 7.85837 27.5143 9.23721 27.1502 9.78329C24.9659 12.0358 20.5017 16.6638 20.1195 17.1553C19.6417 17.7696 19.4369 18.9301 20.3242 20.3635C21.0341 21.5103 22.7588 21.2964 23.5324 21.0461C25.9898 18.7253 31.0683 13.9744 31.7236 13.5376C32.9796 12.9915 33.8851 13.31 34.1809 13.5376C35.2731 14.4932 37.7304 16.6775 38.8226 17.7696C39.9147 18.8618 40.3243 18.0427 40.3925 17.4966V2.82082C40.3925 1.29181 38.6633 0.636519 37.7987 0.5H24.0103Z" fill="#006EFF"/>
<path d="M63.525 15.1066H72.577C73.0524 15.1066 73.4223 15.4941 73.4223 15.9696C73.4223 16.4275 73.0524 16.8149 72.577 16.8149H63.525C61.4821 16.8149 59.8619 18.4527 59.8619 20.4956C59.8619 22.5208 61.4821 24.1586 63.525 24.1586H72.577C73.0524 24.1586 73.4223 24.5461 73.4223 25.0216C73.4223 25.4795 73.0524 25.8669 72.577 25.8669H63.525C60.5663 25.8669 58.1536 23.4542 58.1536 20.4956C58.1536 17.5193 60.5663 15.1066 63.525 15.1066ZM85.5007 15.1066H91.2771C94.2357 15.1066 96.6484 17.5193 96.6484 20.4956C96.6484 23.4542 94.2357 25.8669 91.2771 25.8669H85.5007C82.5421 25.8669 80.1294 23.4542 80.1294 20.4956C80.1294 17.5193 82.5421 15.1066 85.5007 15.1066ZM85.5007 16.8149C83.4579 16.8149 81.8377 18.4527 81.8377 20.4956C81.8377 22.5208 83.4579 24.1586 85.5007 24.1586H91.2771C93.32 24.1586 94.9402 22.5208 94.9402 20.4956C94.9402 18.4527 93.32 16.8149 91.2771 16.8149H85.5007ZM106.787 15.1066H117.213C117.67 15.1066 118.058 15.4941 118.058 15.9696C118.058 16.4275 117.67 16.8149 117.213 16.8149H106.787C106.012 16.8149 105.396 17.4313 105.396 18.2238C105.396 19.0163 106.012 19.6326 106.787 19.6326H115.857C117.565 19.6326 118.956 21.0415 118.956 22.7498C118.956 24.458 117.565 25.8669 115.857 25.8669H104.533C104.057 25.8669 103.687 25.4795 103.687 25.0216C103.687 24.5461 104.057 24.1586 104.533 24.1586H115.857C116.631 24.1586 117.248 23.5423 117.248 22.7498C117.248 21.9573 116.631 21.3409 115.857 21.3409H106.787C105.079 21.3409 103.687 19.932 103.687 18.2238C103.687 16.5155 105.079 15.1066 106.787 15.1066ZM126.817 15.1066C126.835 15.1066 126.852 15.1066 126.852 15.1066C127.011 15.1066 127.258 15.1947 127.381 15.3004L134.777 21.2L142.156 15.3004C142.297 15.1947 142.526 15.1066 142.702 15.1066C143.16 15.1066 143.548 15.4941 143.548 15.9696V25.0216C143.548 25.4795 143.16 25.8669 142.702 25.8669C142.227 25.8669 141.839 25.4795 141.839 25.0216V17.7483L135.306 22.9611C135.182 23.0668 134.936 23.1548 134.777 23.1548C134.601 23.1548 134.372 23.0668 134.231 22.9611L127.715 17.7483V25.0216C127.715 25.4795 127.328 25.8669 126.852 25.8669C126.377 25.8669 126.007 25.4795 126.007 25.0216V15.9696C126.007 15.5117 126.359 15.1242 126.817 15.1066ZM151.442 15.1066C151.918 15.1066 152.305 15.4941 152.305 15.9696V25.0216C152.305 25.4795 151.918 25.8669 151.442 25.8669C150.967 25.8669 150.597 25.4795 150.597 25.0216V15.9696C150.597 15.4941 150.967 15.1066 151.442 15.1066ZM164.375 15.1066H173.427C173.902 15.1066 174.272 15.4941 174.272 15.9696C174.272 16.4275 173.902 16.8149 173.427 16.8149H164.375C162.332 16.8149 160.712 18.4527 160.712 20.4956C160.712 22.5208 162.332 24.1586 164.375 24.1586H173.427C173.902 24.1586 174.272 24.5461 174.272 25.0216C174.272 25.4795 173.902 25.8669 173.427 25.8669H164.375C161.416 25.8669 159.003 23.4542 159.003 20.4956C159.003 17.5193 161.416 15.1066 164.375 15.1066ZM204.488 15.1066H211.268H218.066C218.542 15.1066 218.912 15.4941 218.912 15.9696C218.912 16.4275 218.542 16.8149 218.066 16.8149H212.131V25.0216C212.131 25.4795 211.744 25.8669 211.268 25.8669C210.811 25.8669 210.423 25.4795 210.423 25.0216V16.8149H204.488C204.013 16.8149 203.643 16.4275 203.643 15.9696C203.643 15.4941 204.013 15.1066 204.488 15.1066ZM231.014 15.1066C231.207 15.1242 231.489 15.2475 231.63 15.406L239.326 24.458C239.432 24.5989 239.52 24.8455 239.52 25.0216C239.52 25.2329 239.396 25.5147 239.22 25.6732C239.097 25.7788 238.85 25.8669 238.674 25.8669C238.445 25.8669 238.164 25.726 238.023 25.5675L230.978 17.2728L223.934 25.5675C223.793 25.726 223.494 25.8669 223.282 25.8669C223.106 25.8669 222.86 25.7788 222.736 25.6732C222.56 25.5147 222.437 25.2329 222.437 25.0216C222.437 24.8455 222.525 24.5989 222.631 24.458L230.327 15.406C230.468 15.2475 230.767 15.1066 230.978 15.1066C230.978 15.1066 230.996 15.1066 231.014 15.1066ZM247.408 15.1066H258.714C260.44 15.1066 261.831 16.5155 261.831 18.2238C261.831 19.932 260.44 21.3409 258.714 21.3409H257.023L261.461 24.2995C261.673 24.4404 261.831 24.7574 261.831 25.0216C261.831 25.1625 261.778 25.3738 261.69 25.4795C261.549 25.6908 261.232 25.8669 260.986 25.8669C260.845 25.8669 260.634 25.7964 260.51 25.726L253.942 21.3409H248.271V25.0216C248.271 25.4795 247.883 25.8669 247.408 25.8669C246.932 25.8669 246.563 25.4795 246.563 25.0216V20.4956C246.563 20.0201 246.932 19.6326 247.408 19.6326H254.188H258.714C259.507 19.6326 260.123 19.0163 260.123 18.2238C260.123 17.4313 259.507 16.8149 258.714 16.8149H247.408C246.932 16.8149 246.563 16.4275 246.563 15.9696C246.563 15.4941 246.932 15.1066 247.408 15.1066Z" fill="white"/>
<path d="M184.423 15.1066H194.848C195.306 15.1066 195.694 15.4941 195.694 15.9696C195.694 16.4275 195.306 16.8149 194.848 16.8149H184.423C183.648 16.8149 183.031 17.4313 183.031 18.2238C183.031 19.0163 183.648 19.6326 184.423 19.6326H193.492C195.201 19.6326 196.592 21.0415 196.592 22.7498C196.592 24.458 195.201 25.8669 193.492 25.8669H182.169C181.693 25.8669 181.323 25.4795 181.323 25.0216C181.323 24.5461 181.693 24.1586 182.169 24.1586H193.492C194.267 24.1586 194.884 23.5423 194.884 22.7498C194.884 21.9573 194.267 21.3409 193.492 21.3409H184.423C182.714 21.3409 181.323 19.932 181.323 18.2238C181.323 16.5155 182.714 15.1066 184.423 15.1066Z" fill="#006EFF"/>
</svg>
