<svg width="292" height="40" viewBox="0 0 292 40" fill="none" xmlns="http://www.w3.org/2000/svg">
<path d="M21.5673 7.98115C22.0081 6.31225 21.0094 4.57236 19.2892 4.42961C16.4398 4.19315 13.5591 4.64488 10.8962 5.76725C7.26744 7.2967 4.24768 9.98532 2.30889 13.4129C0.370094 16.8404 -0.378468 20.8137 0.180199 24.7118C0.738866 28.6099 2.57328 32.213 5.39672 34.958C8.22016 37.703 11.8735 39.4353 15.7858 39.884C19.698 40.3327 23.6487 39.4725 27.0203 37.438C30.3919 35.4035 32.9944 32.3092 34.4211 28.6388C35.468 25.9454 35.8385 23.0531 35.5219 20.2115C35.3307 18.4959 33.5634 17.5466 31.9076 18.0343C30.2518 18.5219 29.3512 20.2717 29.379 21.9976C29.403 23.4838 29.1404 24.9706 28.5948 26.3742C27.6687 28.7567 25.9793 30.7653 23.7907 32.086C21.6021 33.4067 19.0376 33.965 16.498 33.6738C13.9584 33.3825 11.5869 32.2581 9.7541 30.4762C7.9213 28.6943 6.73052 26.3554 6.36787 23.825C6.00522 21.2946 6.49114 18.7154 7.74968 16.4904C9.00821 14.2655 10.9684 12.5202 13.324 11.5274C14.7117 10.9425 16.1904 10.6382 17.6767 10.6203C19.4027 10.5996 21.1265 9.65005 21.5673 7.98115Z" fill="black"/>
<path d="M23.6177 0C22.5256 0 22.4346 0.910125 22.5256 1.36519C23.686 2.5711 26.2116 5.22867 27.0307 6.2116C27.686 7.35836 27.1217 8.7372 26.7577 9.28328C24.5734 11.5358 20.1092 16.1638 19.7269 16.6553C19.2491 17.2696 19.0443 18.43 19.9317 19.8635C20.6416 21.0102 22.3663 20.7964 23.1399 20.5461C25.5972 18.2253 30.6757 13.4744 31.331 13.0375C32.587 12.4915 33.4926 12.81 33.7884 13.0375C34.8805 13.9932 37.3379 16.1775 38.43 17.2696C39.5222 18.3618 39.9317 17.5427 40 16.9966V2.32082C40 0.791809 38.2707 0.136519 37.4061 0H23.6177Z" fill="#006EFF"/>
<path d="M64.12 14.16H74.38C74.66 14.16 74.8933 14.2533 75.08 14.44C75.2667 14.6267 75.36 14.8533 75.36 15.12C75.36 15.3867 75.2667 15.62 75.08 15.82C74.8933 16.0067 74.66 16.1 74.38 16.1H64.12C62.96 16.1 61.9733 16.5067 61.16 17.32C60.3467 18.12 59.94 19.1 59.94 20.26C59.94 21.42 60.3467 22.4067 61.16 23.22C61.9733 24.02 62.96 24.42 64.12 24.42H74.38C74.66 24.42 74.8933 24.52 75.08 24.72C75.2667 24.9067 75.36 25.1333 75.36 25.4C75.36 25.6667 75.2667 25.8933 75.08 26.08C74.8933 26.28 74.66 26.38 74.38 26.38H64.12C62.4267 26.38 60.98 25.78 59.78 24.58C58.5933 23.38 58 21.94 58 20.26C58 18.58 58.5933 17.1467 59.78 15.96C60.98 14.76 62.4267 14.16 64.12 14.16ZM89.077 14.16H95.617C97.3104 14.16 98.7504 14.76 99.937 15.96C101.137 17.1467 101.737 18.58 101.737 20.26C101.737 21.94 101.137 23.38 99.937 24.58C98.7504 25.78 97.3104 26.38 95.617 26.38H89.077C87.3837 26.38 85.937 25.78 84.737 24.58C83.5504 23.38 82.957 21.94 82.957 20.26C82.957 18.58 83.5504 17.1467 84.737 15.96C85.937 14.76 87.3837 14.16 89.077 14.16ZM89.077 16.1C87.917 16.1 86.9304 16.5067 86.117 17.32C85.3037 18.12 84.897 19.1 84.897 20.26C84.897 21.42 85.3037 22.4067 86.117 23.22C86.9304 24.02 87.917 24.42 89.077 24.42H95.617C96.777 24.42 97.7637 24.02 98.577 23.22C99.3904 22.4067 99.797 21.42 99.797 20.26C99.797 19.1 99.3904 18.12 98.577 17.32C97.7637 16.5067 96.777 16.1 95.617 16.1H89.077ZM113.251 14.16H125.071C125.338 14.16 125.564 14.2533 125.751 14.44C125.951 14.6267 126.051 14.8533 126.051 15.12C126.051 15.3867 125.951 15.62 125.751 15.82C125.564 16.0067 125.338 16.1 125.071 16.1H113.251C112.798 16.1 112.418 16.2533 112.111 16.56C111.804 16.8667 111.651 17.2467 111.651 17.7C111.651 18.14 111.804 18.5133 112.111 18.82C112.418 19.1267 112.798 19.28 113.251 19.28H123.531C124.504 19.28 125.338 19.6333 126.031 20.34C126.724 21.0333 127.071 21.8667 127.071 22.84C127.071 23.8133 126.724 24.6467 126.031 25.34C125.338 26.0333 124.504 26.38 123.531 26.38H110.691C110.411 26.38 110.178 26.28 109.991 26.08C109.804 25.8933 109.711 25.6667 109.711 25.4C109.711 25.1333 109.804 24.9067 109.991 24.72C110.178 24.52 110.411 24.42 110.691 24.42H123.531C123.984 24.42 124.364 24.2667 124.671 23.96C124.978 23.6533 125.131 23.28 125.131 22.84C125.131 22.3867 124.978 22.0067 124.671 21.7C124.364 21.3933 123.984 21.24 123.531 21.24H113.251C112.278 21.24 111.444 20.8933 110.751 20.2C110.058 19.4933 109.711 18.66 109.711 17.7C109.711 16.7267 110.058 15.8933 110.751 15.2C111.444 14.5067 112.278 14.16 113.251 14.16ZM135.999 14.16C136.012 14.16 136.025 14.16 136.039 14.16C136.265 14.16 136.465 14.2267 136.639 14.36L145.019 21.08L153.419 14.36C153.592 14.2267 153.792 14.16 154.019 14.16C154.285 14.16 154.512 14.2533 154.699 14.44C154.899 14.6267 154.999 14.8533 154.999 15.12V25.4C154.999 25.6667 154.899 25.8933 154.699 26.08C154.512 26.28 154.285 26.38 154.019 26.38C153.752 26.38 153.519 26.28 153.319 26.08C153.132 25.8933 153.039 25.6667 153.039 25.4V17.14L145.639 23.08C145.452 23.2133 145.245 23.28 145.019 23.28C144.792 23.28 144.592 23.2133 144.419 23.08L136.999 17.14V25.4C136.999 25.6667 136.905 25.8933 136.719 26.08C136.532 26.28 136.299 26.38 136.019 26.38C135.752 26.38 135.525 26.28 135.339 26.08C135.152 25.8933 135.059 25.6667 135.059 25.4V15.12C135.059 14.8667 135.145 14.6467 135.319 14.46C135.505 14.26 135.732 14.16 135.999 14.16ZM163.264 14.44C163.451 14.2533 163.678 14.16 163.944 14.16C164.224 14.16 164.458 14.2533 164.644 14.44C164.831 14.6267 164.924 14.8533 164.924 15.12V25.4C164.924 25.6667 164.831 25.8933 164.644 26.08C164.458 26.28 164.224 26.38 163.944 26.38C163.678 26.38 163.451 26.28 163.264 26.08C163.078 25.8933 162.984 25.6667 162.984 25.4V15.12C162.984 14.8533 163.078 14.6267 163.264 14.44ZM178.651 14.16H188.911C189.191 14.16 189.425 14.2533 189.611 14.44C189.798 14.6267 189.891 14.8533 189.891 15.12C189.891 15.3867 189.798 15.62 189.611 15.82C189.425 16.0067 189.191 16.1 188.911 16.1H178.651C177.491 16.1 176.505 16.5067 175.691 17.32C174.878 18.12 174.471 19.1 174.471 20.26C174.471 21.42 174.878 22.4067 175.691 23.22C176.505 24.02 177.491 24.42 178.651 24.42H188.911C189.191 24.42 189.425 24.52 189.611 24.72C189.798 24.9067 189.891 25.1333 189.891 25.4C189.891 25.6667 189.798 25.8933 189.611 26.08C189.425 26.28 189.191 26.38 188.911 26.38H178.651C176.958 26.38 175.511 25.78 174.311 24.58C173.125 23.38 172.531 21.94 172.531 20.26C172.531 18.58 173.125 17.1467 174.311 15.96C175.511 14.76 176.958 14.16 178.651 14.16ZM224.207 14.16H231.907H239.607C239.887 14.16 240.12 14.2533 240.307 14.44C240.493 14.6267 240.587 14.8533 240.587 15.12C240.587 15.3867 240.493 15.62 240.307 15.82C240.12 16.0067 239.887 16.1 239.607 16.1H232.887V25.4C232.887 25.6667 232.787 25.8933 232.587 26.08C232.4 26.28 232.173 26.38 231.907 26.38C231.64 26.38 231.407 26.28 231.207 26.08C231.02 25.8933 230.927 25.6667 230.927 25.4V16.1H224.207C223.927 16.1 223.693 16.0067 223.507 15.82C223.32 15.62 223.227 15.3867 223.227 15.12C223.227 14.8533 223.32 14.6267 223.507 14.44C223.693 14.2533 223.927 14.16 224.207 14.16ZM254.31 14.16C254.604 14.16 254.837 14.2733 255.01 14.5L263.75 24.78C263.91 24.9533 263.99 25.16 263.99 25.4C263.99 25.6933 263.877 25.94 263.65 26.14C263.464 26.3 263.25 26.38 263.01 26.38C262.717 26.38 262.47 26.2667 262.27 26.04L254.27 16.62L246.29 26.04C246.09 26.2667 245.844 26.38 245.55 26.38C245.31 26.38 245.097 26.3 244.91 26.14C244.684 25.94 244.57 25.6933 244.57 25.4C244.57 25.16 244.65 24.9533 244.81 24.78L253.53 14.5C253.73 14.2733 253.977 14.16 254.27 14.16C254.284 14.16 254.297 14.16 254.31 14.16ZM272.949 14.16H285.789C286.762 14.16 287.595 14.5067 288.289 15.2C288.982 15.8933 289.329 16.7267 289.329 17.7C289.329 18.66 288.982 19.4933 288.289 20.2C287.595 20.8933 286.762 21.24 285.789 21.24H283.849L288.889 24.6C289.009 24.68 289.109 24.8 289.189 24.96C289.282 25.1067 289.329 25.2533 289.329 25.4C289.329 25.6 289.275 25.78 289.169 25.94C289.089 26.06 288.969 26.16 288.809 26.24C288.649 26.3333 288.495 26.38 288.349 26.38C288.162 26.38 287.982 26.32 287.809 26.2L280.349 21.24H273.909V25.4C273.909 25.6667 273.815 25.8933 273.629 26.08C273.442 26.28 273.209 26.38 272.929 26.38C272.662 26.38 272.435 26.28 272.249 26.08C272.062 25.8933 271.969 25.6667 271.969 25.4V20.26C271.969 19.9933 272.062 19.7667 272.249 19.58C272.435 19.38 272.669 19.28 272.949 19.28H280.649H285.789C286.229 19.28 286.602 19.1267 286.909 18.82C287.229 18.5133 287.389 18.14 287.389 17.7C287.389 17.2467 287.229 16.8667 286.909 16.56C286.602 16.2533 286.229 16.1 285.789 16.1H272.949C272.669 16.1 272.435 16.0067 272.249 15.82C272.062 15.62 271.969 15.3867 271.969 15.12C271.969 14.8533 272.062 14.6267 272.249 14.44C272.435 14.2533 272.669 14.16 272.949 14.16Z" fill="black"/>
<path d="M201.419 14.16H213.239C213.506 14.16 213.732 14.2533 213.919 14.44C214.119 14.6267 214.219 14.8533 214.219 15.12C214.219 15.3867 214.119 15.62 213.919 15.82C213.732 16.0067 213.506 16.1 213.239 16.1H201.419C200.966 16.1 200.586 16.2533 200.279 16.56C199.972 16.8667 199.819 17.2467 199.819 17.7C199.819 18.14 199.972 18.5133 200.279 18.82C200.586 19.1267 200.966 19.28 201.419 19.28H211.699C212.672 19.28 213.506 19.6333 214.199 20.34C214.892 21.0333 215.239 21.8667 215.239 22.84C215.239 23.8133 214.892 24.6467 214.199 25.34C213.506 26.0333 212.672 26.38 211.699 26.38H198.859C198.579 26.38 198.346 26.28 198.159 26.08C197.972 25.8933 197.879 25.6667 197.879 25.4C197.879 25.1333 197.972 24.9067 198.159 24.72C198.346 24.52 198.579 24.42 198.859 24.42H211.699C212.152 24.42 212.532 24.2667 212.839 23.96C213.146 23.6533 213.299 23.28 213.299 22.84C213.299 22.3867 213.146 22.0067 212.839 21.7C212.532 21.3933 212.152 21.24 211.699 21.24H201.419C200.446 21.24 199.612 20.8933 198.919 20.2C198.226 19.4933 197.879 18.66 197.879 17.7C197.879 16.7267 198.226 15.8933 198.919 15.2C199.612 14.5067 200.446 14.16 201.419 14.16Z" fill="#006EFF"/>
</svg>
