<svg width="26" height="34" viewBox="0 0 26 34" fill="none" xmlns="http://www.w3.org/2000/svg">
<path d="M1 17.4848V2.93939C1 1.77576 1.96 1.16162 2.44 1H15.4L16.36 1.9697M1 17.4848V30.0909C1 31.0606 1.288 33 2.44 33C2.93987 33 5.68704 33 9.16 33M1 17.4848H14.44M9.16 11.1818V33M9.16 33C13.6909 33 19.457 33 23.08 33C23.72 33 25 32.6121 25 31.0606C25 29.5091 25 16.8384 25 10.697L23.56 9.24242M5.32 21.3636L12.52 13.6061M16.36 1.9697V7.30303C16.52 7.9495 17.032 9.24242 17.8 9.24242C18.568 9.24242 21.96 9.24242 23.56 9.24242M16.36 1.9697L23.56 9.24242" stroke="#454545" stroke-width="1.5"/>
</svg>
