<svg width="38" height="24" viewBox="0 0 38 24" fill="none" xmlns="http://www.w3.org/2000/svg">
<path d="M15.8663 0.209707C13.6566 0.532784 9.81684 2.11227 8.11429 3.40458C6.33929 4.76868 2.57194 8.57381 1.26786 10.3328L0 12.02L1.52143 14.0302C7.02755 21.0661 14.5985 24.8712 21.1551 23.8302C23.5097 23.4712 27.3133 21.9277 28.9796 20.6353C30.7546 19.2712 34.5219 15.4661 35.826 13.7071L37.0939 12.02L35.5725 10.0097C30.0663 2.97381 22.6041 -0.723625 15.8663 0.209707ZM24.7413 3.1174C27.8204 4.62509 31.4429 7.46099 33.725 10.1533L35.2827 12.02L33.9061 13.743C30.4648 17.9071 26.3714 20.9584 22.9301 21.9277C21.5898 22.3225 20.0321 22.4661 17.9673 22.3584C15.4316 22.2148 14.5622 21.9995 12.3163 20.8866C9.27347 19.4148 5.65102 16.543 3.36888 13.8866L1.81122 12.02L3.18776 10.2969C6.48418 6.34817 9.99796 3.58407 13.4755 2.32766C15.0694 1.7533 16.1561 1.60971 18.7643 1.7174C21.7347 1.78919 22.3867 1.96868 24.7413 3.1174Z" fill="#454545"/>
<path d="M16.8082 3.44049C14.6347 3.83536 12.425 5.45074 11.1209 7.4969C10.1791 9.04049 10.0342 9.61485 10.0342 11.8046C10.0342 14.9636 11.1571 17.3687 13.4031 19.0559C18.6556 23.0764 26.4439 19.6302 27.1321 13.0251C27.748 7.03023 22.6765 2.36357 16.8082 3.44049ZM21.6985 5.52254C26.8423 7.85587 27.0235 15.5738 21.9883 18.3738C17.8224 20.7072 12.1714 17.9431 11.4469 13.2046C10.5775 7.4251 16.3372 3.11741 21.6985 5.52254Z" fill="#454545"/>
<path d="M15.7215 7.71227C14.4536 8.50201 13.4756 10.2969 13.4756 11.8405C13.4756 13.2764 14.5261 12.8097 15.1419 11.1225C15.6853 9.54304 16.7358 8.57381 18.2572 8.28663C18.8368 8.17893 19.2715 7.85586 19.2715 7.53278C19.2715 6.74304 17.1705 6.85073 15.7215 7.71227Z" fill="#454545"/>
</svg>
